<mxfile host="app.diagrams.net" modified="2022-11-04T09:59:17.640Z" agent="5.0 (Macintosh; Intel Mac OS X 10_15_7) AppleWebKit/537.36 (KHTML, like Gecko) Chrome/106.0.0.0 Safari/537.36" etag="2DveFLkVMS9gUsJOw-Nq" version="20.4.2" type="github">
  <diagram id="AHrSXwYfTzhvrlqlwkTV" name="第 1 页">
    <mxGraphModel dx="2713" dy="850" grid="1" gridSize="10" guides="1" tooltips="1" connect="1" arrows="1" fold="1" page="1" pageScale="1" pageWidth="827" pageHeight="1169" math="0" shadow="0">
      <root>
        <mxCell id="0" />
        <mxCell id="1" parent="0" />
        <mxCell id="jvQon4aiT2xwoVpZ9eFU-1" value="潜在客户列表来源" style="rounded=1;whiteSpace=wrap;html=1;" vertex="1" parent="1">
          <mxGeometry x="80" y="200" width="120" height="60" as="geometry" />
        </mxCell>
        <mxCell id="jvQon4aiT2xwoVpZ9eFU-4" value="" style="shape=singleArrow;whiteSpace=wrap;html=1;arrowWidth=0.4;arrowSize=0.4;rounded=1;direction=south;rotation=-180;" vertex="1" parent="1">
          <mxGeometry x="110" y="90" width="60" height="100" as="geometry" />
        </mxCell>
        <mxCell id="jvQon4aiT2xwoVpZ9eFU-17" value="" style="edgeStyle=orthogonalEdgeStyle;rounded=0;orthogonalLoop=1;jettySize=auto;html=1;" edge="1" parent="1" source="jvQon4aiT2xwoVpZ9eFU-5" target="jvQon4aiT2xwoVpZ9eFU-16">
          <mxGeometry relative="1" as="geometry" />
        </mxCell>
        <mxCell id="jvQon4aiT2xwoVpZ9eFU-5" value="婚奢汇新用户数据自动同步" style="rounded=1;whiteSpace=wrap;html=1;" vertex="1" parent="1">
          <mxGeometry x="80" y="30" width="120" height="60" as="geometry" />
        </mxCell>
        <mxCell id="jvQon4aiT2xwoVpZ9eFU-6" value="客服手工批量导入" style="whiteSpace=wrap;html=1;rounded=1;" vertex="1" parent="1">
          <mxGeometry x="-160" y="200" width="120" height="60" as="geometry" />
        </mxCell>
        <mxCell id="jvQon4aiT2xwoVpZ9eFU-14" value="" style="edgeStyle=orthogonalEdgeStyle;rounded=0;orthogonalLoop=1;jettySize=auto;html=1;" edge="1" parent="1" source="jvQon4aiT2xwoVpZ9eFU-10" target="jvQon4aiT2xwoVpZ9eFU-13">
          <mxGeometry relative="1" as="geometry" />
        </mxCell>
        <mxCell id="jvQon4aiT2xwoVpZ9eFU-10" value="在CRM系统新建录入" style="whiteSpace=wrap;html=1;rounded=1;" vertex="1" parent="1">
          <mxGeometry x="90" y="385" width="120" height="60" as="geometry" />
        </mxCell>
        <mxCell id="jvQon4aiT2xwoVpZ9eFU-12" value="" style="shape=singleArrow;whiteSpace=wrap;html=1;arrowWidth=0.4;arrowSize=0.4;rounded=1;direction=south;" vertex="1" parent="1">
          <mxGeometry x="120" y="280" width="60" height="100" as="geometry" />
        </mxCell>
        <mxCell id="jvQon4aiT2xwoVpZ9eFU-26" value="" style="edgeStyle=orthogonalEdgeStyle;rounded=0;orthogonalLoop=1;jettySize=auto;html=1;" edge="1" parent="1" source="jvQon4aiT2xwoVpZ9eFU-13" target="jvQon4aiT2xwoVpZ9eFU-25">
          <mxGeometry relative="1" as="geometry" />
        </mxCell>
        <mxCell id="jvQon4aiT2xwoVpZ9eFU-27" value="操作：退回/回收" style="edgeLabel;html=1;align=center;verticalAlign=middle;resizable=0;points=[];" vertex="1" connectable="0" parent="jvQon4aiT2xwoVpZ9eFU-26">
          <mxGeometry x="-0.1" y="1" relative="1" as="geometry">
            <mxPoint x="-16" y="52" as="offset" />
          </mxGeometry>
        </mxCell>
        <mxCell id="jvQon4aiT2xwoVpZ9eFU-37" value="" style="edgeStyle=orthogonalEdgeStyle;rounded=0;orthogonalLoop=1;jettySize=auto;html=1;" edge="1" parent="1" source="jvQon4aiT2xwoVpZ9eFU-13" target="jvQon4aiT2xwoVpZ9eFU-36">
          <mxGeometry relative="1" as="geometry" />
        </mxCell>
        <mxCell id="jvQon4aiT2xwoVpZ9eFU-39" value="操作：转换" style="edgeLabel;html=1;align=center;verticalAlign=middle;resizable=0;points=[];" vertex="1" connectable="0" parent="jvQon4aiT2xwoVpZ9eFU-37">
          <mxGeometry x="-0.4957" y="2" relative="1" as="geometry">
            <mxPoint x="159" y="2" as="offset" />
          </mxGeometry>
        </mxCell>
        <mxCell id="jvQon4aiT2xwoVpZ9eFU-13" value="待处理（有规划师）" style="whiteSpace=wrap;html=1;rounded=1;" vertex="1" parent="1">
          <mxGeometry x="405" y="385" width="120" height="60" as="geometry" />
        </mxCell>
        <mxCell id="jvQon4aiT2xwoVpZ9eFU-15" value="状态流转" style="text;html=1;align=center;verticalAlign=middle;resizable=0;points=[];autosize=1;strokeColor=none;fillColor=none;" vertex="1" parent="1">
          <mxGeometry x="245" y="380" width="70" height="30" as="geometry" />
        </mxCell>
        <mxCell id="jvQon4aiT2xwoVpZ9eFU-21" style="edgeStyle=orthogonalEdgeStyle;rounded=0;orthogonalLoop=1;jettySize=auto;html=1;entryX=0.25;entryY=0;entryDx=0;entryDy=0;" edge="1" parent="1" source="jvQon4aiT2xwoVpZ9eFU-16" target="jvQon4aiT2xwoVpZ9eFU-13">
          <mxGeometry relative="1" as="geometry">
            <mxPoint x="380" y="370" as="targetPoint" />
            <Array as="points">
              <mxPoint x="380" y="320" />
              <mxPoint x="435" y="320" />
            </Array>
          </mxGeometry>
        </mxCell>
        <mxCell id="jvQon4aiT2xwoVpZ9eFU-24" value="操作：分配" style="edgeLabel;html=1;align=center;verticalAlign=middle;resizable=0;points=[];" vertex="1" connectable="0" parent="jvQon4aiT2xwoVpZ9eFU-21">
          <mxGeometry x="-0.5393" y="2" relative="1" as="geometry">
            <mxPoint y="1" as="offset" />
          </mxGeometry>
        </mxCell>
        <mxCell id="jvQon4aiT2xwoVpZ9eFU-29" value="" style="edgeStyle=orthogonalEdgeStyle;rounded=0;orthogonalLoop=1;jettySize=auto;html=1;" edge="1" parent="1" source="jvQon4aiT2xwoVpZ9eFU-16" target="jvQon4aiT2xwoVpZ9eFU-28">
          <mxGeometry relative="1" as="geometry" />
        </mxCell>
        <mxCell id="jvQon4aiT2xwoVpZ9eFU-31" value="操作：领取" style="edgeLabel;html=1;align=center;verticalAlign=middle;resizable=0;points=[];" vertex="1" connectable="0" parent="jvQon4aiT2xwoVpZ9eFU-29">
          <mxGeometry x="-0.1167" y="3" relative="1" as="geometry">
            <mxPoint y="1" as="offset" />
          </mxGeometry>
        </mxCell>
        <mxCell id="jvQon4aiT2xwoVpZ9eFU-16" value="待分配（无规划师）" style="whiteSpace=wrap;html=1;rounded=1;" vertex="1" parent="1">
          <mxGeometry x="320" y="30" width="120" height="60" as="geometry" />
        </mxCell>
        <mxCell id="jvQon4aiT2xwoVpZ9eFU-18" value="&lt;meta charset=&quot;utf-8&quot;&gt;&lt;span style=&quot;color: rgb(0, 0, 0); font-family: Helvetica; font-size: 12px; font-style: normal; font-variant-ligatures: normal; font-variant-caps: normal; font-weight: 400; letter-spacing: normal; orphans: 2; text-align: center; text-indent: 0px; text-transform: none; widows: 2; word-spacing: 0px; -webkit-text-stroke-width: 0px; background-color: rgb(248, 249, 250); text-decoration-thickness: initial; text-decoration-style: initial; text-decoration-color: initial; float: none; display: inline !important;&quot;&gt;状态流转&lt;/span&gt;" style="text;whiteSpace=wrap;html=1;" vertex="1" parent="1">
          <mxGeometry x="240" y="30" width="80" height="40" as="geometry" />
        </mxCell>
        <mxCell id="jvQon4aiT2xwoVpZ9eFU-19" value="" style="shape=singleArrow;whiteSpace=wrap;html=1;arrowWidth=0.4;arrowSize=0.4;rounded=1;direction=west;" vertex="1" parent="1">
          <mxGeometry x="-30" y="200" width="100" height="60" as="geometry" />
        </mxCell>
        <mxCell id="jvQon4aiT2xwoVpZ9eFU-23" value="（消息中心-》提醒规划师）" style="text;html=1;align=center;verticalAlign=middle;resizable=0;points=[];autosize=1;strokeColor=none;fillColor=none;" vertex="1" parent="1">
          <mxGeometry x="370" y="230" width="170" height="30" as="geometry" />
        </mxCell>
        <mxCell id="jvQon4aiT2xwoVpZ9eFU-35" style="edgeStyle=orthogonalEdgeStyle;rounded=0;orthogonalLoop=1;jettySize=auto;html=1;entryX=0.25;entryY=1;entryDx=0;entryDy=0;" edge="1" parent="1" source="jvQon4aiT2xwoVpZ9eFU-25" target="jvQon4aiT2xwoVpZ9eFU-1">
          <mxGeometry relative="1" as="geometry">
            <mxPoint x="30" y="330" as="targetPoint" />
            <Array as="points">
              <mxPoint x="20" y="680" />
              <mxPoint x="20" y="310" />
              <mxPoint x="110" y="310" />
            </Array>
          </mxGeometry>
        </mxCell>
        <mxCell id="jvQon4aiT2xwoVpZ9eFU-25" value="待分配" style="whiteSpace=wrap;html=1;rounded=1;" vertex="1" parent="1">
          <mxGeometry x="405" y="640" width="120" height="60" as="geometry" />
        </mxCell>
        <mxCell id="jvQon4aiT2xwoVpZ9eFU-33" style="edgeStyle=orthogonalEdgeStyle;rounded=0;orthogonalLoop=1;jettySize=auto;html=1;entryX=0.5;entryY=0;entryDx=0;entryDy=0;" edge="1" parent="1" source="jvQon4aiT2xwoVpZ9eFU-28" target="jvQon4aiT2xwoVpZ9eFU-13">
          <mxGeometry relative="1" as="geometry">
            <Array as="points">
              <mxPoint x="610" y="320" />
              <mxPoint x="465" y="320" />
            </Array>
          </mxGeometry>
        </mxCell>
        <mxCell id="jvQon4aiT2xwoVpZ9eFU-34" value="状态流转" style="edgeLabel;html=1;align=center;verticalAlign=middle;resizable=0;points=[];" vertex="1" connectable="0" parent="jvQon4aiT2xwoVpZ9eFU-33">
          <mxGeometry x="-0.6659" y="1" relative="1" as="geometry">
            <mxPoint as="offset" />
          </mxGeometry>
        </mxCell>
        <mxCell id="jvQon4aiT2xwoVpZ9eFU-28" value="分配给自己" style="whiteSpace=wrap;html=1;rounded=1;" vertex="1" parent="1">
          <mxGeometry x="560" y="30" width="120" height="60" as="geometry" />
        </mxCell>
        <mxCell id="jvQon4aiT2xwoVpZ9eFU-30" value="&lt;span style=&quot;color: rgb(0, 0, 0); font-family: Helvetica; font-size: 11px; font-style: normal; font-variant-ligatures: normal; font-variant-caps: normal; font-weight: 400; letter-spacing: normal; orphans: 2; text-align: center; text-indent: 0px; text-transform: none; widows: 2; word-spacing: 0px; -webkit-text-stroke-width: 0px; background-color: rgb(255, 255, 255); text-decoration-thickness: initial; text-decoration-style: initial; text-decoration-color: initial; float: none; display: inline !important;&quot;&gt;分配：分配给对应的规划师&lt;/span&gt;" style="text;whiteSpace=wrap;html=1;" vertex="1" parent="1">
          <mxGeometry x="390" y="200" width="150" height="40" as="geometry" />
        </mxCell>
        <mxCell id="jvQon4aiT2xwoVpZ9eFU-36" value="已转换（新增客户）" style="whiteSpace=wrap;html=1;rounded=1;" vertex="1" parent="1">
          <mxGeometry x="827" y="385" width="140" height="60" as="geometry" />
        </mxCell>
        <mxCell id="jvQon4aiT2xwoVpZ9eFU-40" value="" style="endArrow=classic;html=1;rounded=0;exitX=0.933;exitY=0.975;exitDx=0;exitDy=0;exitPerimeter=0;entryX=0;entryY=0;entryDx=0;entryDy=0;" edge="1" parent="1" source="jvQon4aiT2xwoVpZ9eFU-13" target="jvQon4aiT2xwoVpZ9eFU-41">
          <mxGeometry width="50" height="50" relative="1" as="geometry">
            <mxPoint x="620" y="540" as="sourcePoint" />
            <mxPoint x="630" y="520" as="targetPoint" />
          </mxGeometry>
        </mxCell>
        <mxCell id="jvQon4aiT2xwoVpZ9eFU-42" value="操作：无效" style="edgeLabel;html=1;align=center;verticalAlign=middle;resizable=0;points=[];" vertex="1" connectable="0" parent="jvQon4aiT2xwoVpZ9eFU-40">
          <mxGeometry x="-0.1582" y="-1" relative="1" as="geometry">
            <mxPoint as="offset" />
          </mxGeometry>
        </mxCell>
        <mxCell id="jvQon4aiT2xwoVpZ9eFU-43" style="edgeStyle=orthogonalEdgeStyle;rounded=0;orthogonalLoop=1;jettySize=auto;html=1;" edge="1" parent="1" source="jvQon4aiT2xwoVpZ9eFU-41">
          <mxGeometry relative="1" as="geometry">
            <mxPoint x="470" y="560" as="targetPoint" />
          </mxGeometry>
        </mxCell>
        <mxCell id="jvQon4aiT2xwoVpZ9eFU-45" value="操作" style="edgeLabel;html=1;align=center;verticalAlign=middle;resizable=0;points=[];" vertex="1" connectable="0" parent="jvQon4aiT2xwoVpZ9eFU-43">
          <mxGeometry x="-0.0737" relative="1" as="geometry">
            <mxPoint as="offset" />
          </mxGeometry>
        </mxCell>
        <mxCell id="jvQon4aiT2xwoVpZ9eFU-44" style="edgeStyle=orthogonalEdgeStyle;rounded=0;orthogonalLoop=1;jettySize=auto;html=1;startArrow=none;" edge="1" parent="1" source="jvQon4aiT2xwoVpZ9eFU-46">
          <mxGeometry relative="1" as="geometry">
            <mxPoint x="720" y="420" as="targetPoint" />
          </mxGeometry>
        </mxCell>
        <mxCell id="jvQon4aiT2xwoVpZ9eFU-41" value="潜在客户（无效）" style="rounded=1;whiteSpace=wrap;html=1;" vertex="1" parent="1">
          <mxGeometry x="660" y="530" width="120" height="60" as="geometry" />
        </mxCell>
        <mxCell id="jvQon4aiT2xwoVpZ9eFU-46" value="操作" style="text;html=1;align=center;verticalAlign=middle;resizable=0;points=[];autosize=1;strokeColor=none;fillColor=none;" vertex="1" parent="1">
          <mxGeometry x="695" y="455" width="50" height="30" as="geometry" />
        </mxCell>
        <mxCell id="jvQon4aiT2xwoVpZ9eFU-47" value="" style="edgeStyle=orthogonalEdgeStyle;rounded=0;orthogonalLoop=1;jettySize=auto;html=1;endArrow=none;" edge="1" parent="1" source="jvQon4aiT2xwoVpZ9eFU-41" target="jvQon4aiT2xwoVpZ9eFU-46">
          <mxGeometry relative="1" as="geometry">
            <mxPoint x="720" y="420" as="targetPoint" />
            <mxPoint x="720" y="530" as="sourcePoint" />
          </mxGeometry>
        </mxCell>
      </root>
    </mxGraphModel>
  </diagram>
</mxfile>
